<svg xmlns="http://www.w3.org/2000/svg" viewBox="0 0 200 200">
  <!-- 头部 -->
  <circle cx="100" cy="80" r="60" fill="#4a6bff" />
  <!-- 眼睛 -->
  <ellipse cx="70" cy="70" rx="12" ry="8" fill="white" />
  <ellipse cx="130" cy="70" rx="12" ry="8" fill="white" />
  <circle cx="70" cy="70" r="5" fill="black" />
  <circle cx="130" cy="70" r="5" fill="black" />
  <!-- 嘴巴 -->
  <path d="M85 95 Q100 105 115 95" stroke="white" stroke-width="3" fill="none" />
  <!-- 书本 -->
  <rect x="40" y="120" width="120" height="60" fill="#ffca28" />
  <rect x="40" y="120" width="120" height="10" fill="#ff7043" />
  <path d="M100 120 L100 180" stroke="#ff7043" stroke-width="2" />
  <!-- 小手指向书 -->
  <path d="M70 100 Q60 110 65 120" stroke="#3a5bef" stroke-width="5" fill="none" />
  <circle cx="65" cy="120" r="5" fill="#3a5bef" />
  <!-- 眼镜 -->
  <circle cx="70" cy="70" r="18" stroke="#ffca28" stroke-width="2" fill="none" />
  <circle cx="130" cy="70" r="18" stroke="#ffca28" stroke-width="2" fill="none" />
  <line x1="88" y1="70" x2="112" y2="70" stroke="#ffca28" stroke-width="2" />
  <!-- 耳朵 -->
  <ellipse cx="50" cy="55" rx="12" ry="20" fill="#3a5bef" />
  <ellipse cx="150" cy="55" rx="12" ry="20" fill="#3a5bef" />
  <!-- 思考泡泡 -->
  <circle cx="160" cy="40" r="8" fill="white" opacity="0.8" />
  <circle cx="145" cy="30" r="12" fill="white" opacity="0.8" />
  <circle cx="125" cy="20" r="15" fill="white" opacity="0.8" />
</svg>